<svg width="24" height="24" viewBox="0 0 32 32" fill="none" xmlns="http://www.w3.org/2000/svg">
<path d="M5.3335 6.13348H26.6665C26.9524 6.13348 27.2165 5.98098 27.3594 5.73348C27.5022 5.48598 27.5022 5.18098 27.3594 4.93348C27.2165 4.68598 26.9524 4.53348 26.6665 4.53348H21.9104L21.2704 2.61348C21.1477 2.24081 20.9106 1.91634 20.5926 1.68653C20.2745 1.45672 19.8922 1.33314 19.4999 1.3335H12.5024C12.1101 1.33314 11.7278 1.45671 11.4097 1.68653C11.0917 1.91635 10.8545 2.24082 10.7319 2.61348L10.0919 4.53348H5.3335C5.0476 4.53348 4.78351 4.68598 4.64065 4.93348C4.49779 5.18098 4.49779 5.48599 4.64065 5.73348C4.78351 5.98098 5.04761 6.13348 5.3335 6.13348ZM12.2487 3.11579C12.2857 3.00704 12.3876 2.93365 12.5024 2.93347H19.4977C19.6125 2.93365 19.7144 3.00704 19.7514 3.11579L20.2228 4.53348H11.7771L12.2487 3.11579Z" fill="#E64545"/>
<path d="M10.5495 24.2665H21.451C22.1996 24.2656 22.9196 23.9792 23.4646 23.466C24.0096 22.9527 24.3385 22.2512 24.3842 21.5038L25.2269 7.19983H6.77386L7.61656 21.5038C7.66228 22.2512 7.9912 22.9527 8.5362 23.466C9.0812 23.9792 9.8012 24.2656 10.5498 24.2665H10.5495ZM17.867 12.8C17.867 12.5141 18.0195 12.25 18.267 12.1072C18.5145 11.9643 18.8195 11.9643 19.067 12.1072C19.3145 12.25 19.467 12.5141 19.467 12.8V18.1335C19.467 18.4192 19.3145 18.6833 19.067 18.8262C18.8195 18.9692 18.5145 18.9692 18.267 18.8262C18.0195 18.6833 17.867 18.4192 17.867 18.1335V12.8ZM12.5335 12.8H12.5337C12.5337 12.5141 12.6862 12.25 12.9337 12.1072C13.1812 11.9643 13.4862 11.9643 13.7337 12.1072C13.9812 12.25 14.1337 12.5141 14.1337 12.8V18.1335C14.1337 18.4192 13.9812 18.6833 13.7337 18.8262C13.4862 18.9692 13.1812 18.9692 12.9337 18.8262C12.6862 18.6833 12.5337 18.4192 12.5337 18.1335L12.5335 12.8Z" fill="#E64545"/>
</svg>
