<svg width="18" height="14" viewBox="0 0 24 18" fill="none" xmlns="http://www.w3.org/2000/svg">
<path d="M18.1468 2.27012C18.1468 2.63515 17.8555 2.93112 17.4822 2.93112H7.258C3.24921 2.93112 0 6.1808 0 10.1901C0 14.2006 3.24556 17.449 7.258 17.449H21.1155C21.8446 17.449 22.4361 16.863 22.4361 16.1289C22.4361 15.4002 21.8409 14.8092 21.1155 14.8092H7.258C4.70378 14.8092 2.63988 12.7434 2.63988 10.1902C2.63988 7.63878 4.70708 5.57112 7.258 5.57112H17.4822C17.8495 5.57112 18.1468 5.87077 18.1468 6.23256V7.76809C18.1468 8.49628 18.6094 8.72367 19.1843 8.27211L23.7882 4.65513C24.0722 4.43235 24.069 4.06778 23.7882 3.8473L19.1843 0.230322C18.6113 -0.219847 18.1468 0.011678 18.1468 0.734803V2.27012Z" fill="#4662C6"/>
</svg>
