<svg width="24" height="24" viewBox="0 0 32 24" fill="none" xmlns="http://www.w3.org/2000/svg">
<path d="M18.3983 0.360063C14.9116 0.360063 11.425 1.68644 8.77289 4.3379C3.80727 9.30365 3.49503 17.1967 7.82907 22.535L0.432388 29.9352H0.433026C0.159709 30.197 0.00389757 30.5578 7.22046e-05 30.9365C-0.00375921 31.3152 0.145032 31.6792 0.412592 31.9468C0.680155 32.215 1.04415 32.3631 1.42283 32.3593C1.80151 32.3555 2.1623 32.1997 2.42477 31.9263L9.82145 24.5262C15.1593 28.8648 23.0535 28.5526 28.0214 23.5855C33.3242 18.2825 33.3273 9.64104 28.0239 4.33721C25.3725 1.6857 21.8852 0.359375 18.3985 0.359375L18.3983 0.360063ZM18.3983 3.15772C21.1582 3.15772 23.9182 4.21589 26.0318 6.32959C30.2585 10.5564 30.2554 17.3679 26.0293 21.594C21.8428 25.7806 15.1262 25.8145 10.8916 21.7071V21.7064C10.8233 21.6189 10.7447 21.5391 10.6573 21.4701C10.656 21.4689 10.6541 21.4682 10.6521 21.4669C6.5474 17.2325 6.57928 10.515 10.7652 6.32888C12.8783 4.21572 15.6388 3.15702 18.3987 3.15702L18.3983 3.15772Z" fill="#A3A6AE"/>
</svg>
