<svg width="24" height="24" viewBox="0 0 32 32" fill="none" xmlns="http://www.w3.org/2000/svg">
<path d="M8.53349 24.2665H23.4665C24.2447 24.2672 24.9912 23.9583 25.5414 23.4081C26.0917 22.8578 26.4005 22.1114 26.3999 21.3333V16.5333C26.3997 16.2026 26.3308 15.8756 26.1972 15.5733L24.5226 3.85078C24.4215 3.15273 24.0728 2.51455 23.5401 2.05238C23.0074 1.59021 22.3263 1.33508 21.6211 1.33344H10.3786C9.67344 1.33504 8.99239 1.59022 8.45968 2.05238C7.92697 2.51455 7.57826 3.15273 7.47718 3.85078L5.80253 15.5733C5.66896 15.8756 5.60003 16.2026 5.59985 16.5333V21.3333C5.59932 22.1114 5.90807 22.8578 6.45841 23.4081C7.00859 23.9583 7.75501 24.2672 8.53325 24.2665H8.53349ZM9.0667 4.07451C9.11223 3.75861 9.26973 3.46953 9.51063 3.26006C9.75152 3.0506 10.0596 2.93453 10.3788 2.93328H21.6213C21.9406 2.93453 22.2487 3.0506 22.4896 3.26006C22.7304 3.46953 22.8879 3.75862 22.9335 4.07451L24.3842 14.165H24.384C24.2572 14.1438 24.1288 14.1331 24.0001 14.1331H20.2667C19.7724 14.1352 19.2988 14.3327 18.9494 14.6822C18.5997 15.0318 18.4024 15.5052 18.4001 15.9997C18.3986 16.0889 18.3915 16.1781 18.3788 16.2663C18.3217 16.5216 18.192 16.755 18.0054 16.9384C17.7594 17.1922 17.4202 17.3348 17.0667 17.333H14.9335C14.6267 17.3329 14.3295 17.2264 14.0922 17.032C13.8551 16.8377 13.6924 16.567 13.6321 16.2663C13.6103 16.1791 13.5996 16.0895 13.6001 15.9997C13.5978 15.5052 13.4005 15.0318 13.0508 14.6822C12.7013 14.3327 12.2278 14.1352 11.7335 14.1331H8.00011C7.87136 14.1331 7.74297 14.1438 7.61619 14.165L9.0667 4.07451Z" fill="#53526B"/>
<path d="M12.8 11.4665H19.2C19.4859 11.4665 19.75 11.314 19.8928 11.0665C20.0357 10.819 20.0357 10.514 19.8928 10.2665C19.75 10.019 19.4859 9.86652 19.2 9.86652H12.8C12.5141 9.86652 12.25 10.019 12.1071 10.2665C11.9643 10.514 11.9643 10.819 12.1071 11.0665C12.25 11.314 12.5141 11.4665 12.8 11.4665Z" fill="#53526B"/>
<path d="M12.8 7.19998H19.2C19.4859 7.19998 19.75 7.04748 19.8928 6.79998C20.0357 6.55247 20.0357 6.24747 19.8928 5.99998C19.75 5.75248 19.4859 5.59998 19.2 5.59998H12.8C12.5141 5.59998 12.25 5.75247 12.1071 5.99998C11.9643 6.24748 11.9643 6.55248 12.1071 6.79998C12.25 7.04747 12.5141 7.19998 12.8 7.19998Z" fill="#53526B"/>
</svg>
