<svg width="268" height="74" viewBox="0 0 268 74" fill="none" xmlns="http://www.w3.org/2000/svg">
<path d="M87.2642 42V27.4545H90.3395V33.8679H90.5312L95.7656 27.4545H99.4517L94.054 33.9673L99.5156 42H95.8366L91.8523 36.0199L90.3395 37.8665V42H87.2642ZM107.56 42H104.265L109.286 27.4545H113.249L118.263 42H114.968L111.325 30.7784H111.211L107.56 42ZM107.354 36.2827H115.138V38.6832H107.354V36.2827ZM121.683 29.9901V27.4545H133.629V29.9901H129.176V42H126.136V29.9901H121.683ZM140.326 42H137.031L142.052 27.4545H146.015L151.029 42H147.734L144.09 30.7784H143.977L140.326 42ZM140.12 36.2827H147.904V38.6832H140.12V36.2827ZM173.299 31.6378C173.243 31.0649 172.999 30.6198 172.568 30.3026C172.137 29.9853 171.552 29.8267 170.814 29.8267C170.312 29.8267 169.888 29.8977 169.542 30.0398C169.197 30.1771 168.931 30.3688 168.747 30.6151C168.567 30.8613 168.477 31.1406 168.477 31.4531C168.467 31.7135 168.522 31.9408 168.64 32.1349C168.763 32.3291 168.931 32.4972 169.145 32.6392C169.358 32.7765 169.604 32.8973 169.883 33.0014C170.163 33.1009 170.461 33.1861 170.778 33.2571L172.085 33.5696C172.719 33.7116 173.302 33.901 173.832 34.1378C174.362 34.3745 174.822 34.6657 175.21 35.0114C175.598 35.357 175.899 35.7642 176.112 36.233C176.33 36.7017 176.441 37.2391 176.446 37.8452C176.441 38.7353 176.214 39.5071 175.764 40.1605C175.319 40.8092 174.675 41.3134 173.832 41.6733C172.994 42.0284 171.983 42.206 170.799 42.206C169.625 42.206 168.602 42.026 167.731 41.6662C166.865 41.3063 166.188 40.7737 165.7 40.0682C165.217 39.358 164.964 38.4796 164.94 37.4332H167.916C167.949 37.9209 168.089 38.3281 168.335 38.6548C168.586 38.9768 168.92 39.2206 169.336 39.3864C169.758 39.5473 170.234 39.6278 170.764 39.6278C171.285 39.6278 171.737 39.5521 172.12 39.4006C172.509 39.2491 172.809 39.0384 173.022 38.7685C173.235 38.4986 173.342 38.1884 173.342 37.8381C173.342 37.5114 173.245 37.2367 173.051 37.0142C172.861 36.7917 172.582 36.6023 172.213 36.446C171.848 36.2898 171.401 36.1477 170.87 36.0199L169.287 35.6222C168.06 35.3239 167.092 34.8575 166.382 34.223C165.672 33.5885 165.319 32.7339 165.324 31.6591C165.319 30.7784 165.553 30.009 166.027 29.3509C166.505 28.6927 167.161 28.179 167.994 27.8097C168.827 27.4403 169.774 27.2557 170.835 27.2557C171.914 27.2557 172.857 27.4403 173.662 27.8097C174.471 28.179 175.101 28.6927 175.551 29.3509C176.001 30.009 176.233 30.7713 176.247 31.6378H173.299ZM181.662 27.4545H185.107L188.423 33.7188H188.565L191.882 27.4545H195.327L190.021 36.858V42H186.967V36.858L181.662 27.4545ZM209.991 27.4545H213.066V36.9006C213.066 37.9612 212.813 38.8892 212.306 39.6847C211.804 40.4801 211.101 41.1004 210.197 41.5455C209.292 41.9858 208.239 42.206 207.036 42.206C205.829 42.206 204.773 41.9858 203.869 41.5455C202.964 41.1004 202.261 40.4801 201.759 39.6847C201.257 38.8892 201.006 37.9612 201.006 36.9006V27.4545H204.082V36.6378C204.082 37.1918 204.202 37.6842 204.444 38.1151C204.69 38.5459 205.036 38.8845 205.481 39.1307C205.926 39.3769 206.444 39.5 207.036 39.5C207.633 39.5 208.151 39.3769 208.592 39.1307C209.037 38.8845 209.38 38.5459 209.621 38.1151C209.868 37.6842 209.991 37.1918 209.991 36.6378V27.4545ZM219.596 42V27.4545H222.672V33.8679H222.863L228.098 27.4545H231.784L226.386 33.9673L231.848 42H228.169L224.184 36.0199L222.672 37.8665V42H219.596ZM246.37 27.4545H249.445V36.9006C249.445 37.9612 249.192 38.8892 248.685 39.6847C248.183 40.4801 247.48 41.1004 246.576 41.5455C245.671 41.9858 244.618 42.206 243.415 42.206C242.208 42.206 241.152 41.9858 240.248 41.5455C239.343 41.1004 238.64 40.4801 238.138 39.6847C237.636 38.8892 237.385 37.9612 237.385 36.9006V27.4545H240.461V36.6378C240.461 37.1918 240.581 37.6842 240.823 38.1151C241.069 38.5459 241.415 38.8845 241.86 39.1307C242.305 39.3769 242.823 39.5 243.415 39.5C244.012 39.5 244.53 39.3769 244.971 39.1307C245.416 38.8845 245.759 38.5459 246 38.1151C246.247 37.6842 246.37 37.1918 246.37 36.6378V27.4545ZM255.975 42V27.4545H261.714C262.812 27.4545 263.75 27.651 264.526 28.044C265.308 28.4323 265.902 28.9839 266.309 29.6989C266.721 30.4091 266.927 31.2448 266.927 32.206C266.927 33.1719 266.719 34.0028 266.302 34.6989C265.885 35.3902 265.281 35.9205 264.491 36.2898C263.705 36.6591 262.753 36.8438 261.636 36.8438H257.793V34.3722H261.138C261.726 34.3722 262.213 34.2917 262.602 34.1307C262.99 33.9697 263.279 33.7282 263.468 33.4062C263.662 33.0843 263.759 32.6842 263.759 32.206C263.759 31.723 263.662 31.3158 263.468 30.9844C263.279 30.6529 262.987 30.402 262.594 30.2315C262.206 30.0563 261.716 29.9688 261.124 29.9688H259.05V42H255.975ZM263.83 35.3807L267.445 42H264.05L260.513 35.3807H263.83Z" fill="#F1F2F4"/>
<g filter="url(#filter0_d_3_238)">
<mask id="mask0_3_238" style="mask-type:alpha" maskUnits="userSpaceOnUse" x="6" y="6" width="58" height="58">
<circle cx="35" cy="35" r="29" fill="#D9D9D9"/>
</mask>
<g mask="url(#mask0_3_238)">
<circle cx="35" cy="35" r="29" fill="#EB991E"/>
<g filter="url(#filter1_i_3_238)">
<path d="M22.3146 64.924C17.9339 63.7239 13.3729 57.2427 13.3729 57.2427C14.213 45.3606 11.9927 44.5204 20.2141 38.9994C21.2941 38.2794 28.3755 32.6982 29.636 31.9184C29.996 31.7384 30.2961 31.5584 30.6561 31.4383C33.0563 30.5383 35.0368 31.7983 33.1765 33.4785C31.1962 35.2186 26.5154 38.5193 25.4952 39.6596C29.7562 38.7596 33.0564 37.8592 35.817 36.8391C39.5978 35.459 42.3581 33.9587 44.9387 32.3383C47.0393 31.0779 48.7794 29.3977 49.9795 27.1175C50.2194 26.6374 50.6397 26.2774 51.0595 26.1572C52.1395 25.7369 53.34 26.5775 52.6197 27.9577C52.4397 28.3177 52.0194 29.2181 51.9595 29.3378C48.4792 37.439 42.2383 40.4398 32.5761 45.5407C32.3362 45.6608 29.9355 46.8011 28.3755 47.4612C28.3755 47.4612 26.2749 47.7011 24.4147 54.6624C22.5544 61.6237 22.3141 64.9244 22.3141 64.9244L22.3146 64.924Z" fill="white"/>
<path d="M27.4155 38.8794C27.4155 38.8794 35.8167 36.6591 40.1977 34.3786C44.5784 32.0981 47.2788 29.2775 49.0193 25.8571C49.5593 24.8968 47.2189 23.5167 45.4788 26.1572C43.7387 28.7978 37.1972 32.7586 35.2771 33.5384C33.3561 34.2589 29.5757 37.0794 27.4154 38.8794L27.4155 38.8794Z" fill="white"/>
<path d="M27.5955 48.9612C27.4155 48.9612 25.6749 58.263 27.1154 64.1439C23.6945 62.6436 23.3346 62.4636 23.3346 62.4636C23.3346 62.4636 25.9752 49.3213 27.5956 48.9612H27.5955Z" fill="white"/>
<path d="M14.9933 42.12C14.9933 42.12 15.4734 37.6192 18.1738 35.219C20.8742 32.8184 24.5952 23.3369 26.0954 24.5367C27.5957 25.7368 26.0954 28.2572 24.475 31.1381C22.8547 34.0185 22.7948 36.1189 22.7948 36.1189L14.9933 42.12Z" fill="white"/>
<path d="M34.6768 33.0584C34.6768 33.0584 39.3576 30.538 43.078 27.2972C43.4983 26.9372 43.3782 26.2172 42.898 25.9769C42.1178 25.6169 40.6777 25.7969 38.2172 28.3771C35.5168 30.6577 34.4364 30.9574 34.4364 30.9574C34.4368 30.9578 35.3971 32.1579 34.6767 33.0583L34.6768 33.0584Z" fill="white"/>
</g>
</g>
</g>
<defs>
<filter id="filter0_d_3_238" x="0" y="0" width="74" height="74" filterUnits="userSpaceOnUse" color-interpolation-filters="sRGB">
<feFlood flood-opacity="0" result="BackgroundImageFix"/>
<feColorMatrix in="SourceAlpha" type="matrix" values="0 0 0 0 0 0 0 0 0 0 0 0 0 0 0 0 0 0 127 0" result="hardAlpha"/>
<feOffset dx="2" dy="2"/>
<feGaussianBlur stdDeviation="4"/>
<feComposite in2="hardAlpha" operator="out"/>
<feColorMatrix type="matrix" values="0 0 0 0 0.0494792 0 0 0 0 0.06 0 0 0 0 0.3125 0 0 0 0.5 0"/>
<feBlend mode="normal" in2="BackgroundImageFix" result="effect1_dropShadow_3_238"/>
<feBlend mode="normal" in="SourceGraphic" in2="effect1_dropShadow_3_238" result="shape"/>
</filter>
<filter id="filter1_i_3_238" x="13.3729" y="24.4322" width="39.4654" height="40.4922" filterUnits="userSpaceOnUse" color-interpolation-filters="sRGB">
<feFlood flood-opacity="0" result="BackgroundImageFix"/>
<feBlend mode="normal" in="SourceGraphic" in2="BackgroundImageFix" result="shape"/>
<feColorMatrix in="SourceAlpha" type="matrix" values="0 0 0 0 0 0 0 0 0 0 0 0 0 0 0 0 0 0 127 0" result="hardAlpha"/>
<feOffset/>
<feGaussianBlur stdDeviation="1"/>
<feComposite in2="hardAlpha" operator="arithmetic" k2="-1" k3="1"/>
<feColorMatrix type="matrix" values="0 0 0 0 0.921569 0 0 0 0 0.6 0 0 0 0 0.117647 0 0 0 0.25 0"/>
<feBlend mode="normal" in2="shape" result="effect1_innerShadow_3_238"/>
</filter>
</defs>
</svg>
